<?xml version="1.0" encoding="utf-8"?>
<!-- Generator: Adobe Illustrator 22.0.0, SVG Export Plug-In . SVG Version: 6.00 Build 0)  -->
<svg version="1.1" id="Layer_1" xmlns="http://www.w3.org/2000/svg" xmlns:xlink="http://www.w3.org/1999/xlink" x="0px" y="0px"
	 viewBox="0 0 768 1000" style="enable-background:new 0 0 768 1000;" xml:space="preserve">
<style type="text/css">
	.st0{fill:none;stroke:#373938;stroke-width:4;stroke-miterlimit:10;}
	.st1{fill:#FFFFFF;}
</style>
<g>
	<line class="st0" x1="292" y1="69.4" x2="496" y2="154.9"/>
</g>
<g>
	<line class="st0" x1="495.9" y1="417.5" x2="291.8" y2="594.8"/>
</g>
<g>
	<line class="st0" x1="496" y1="154.3" x2="292" y2="327.5"/>
</g>
<g>
	<line class="st0" x1="292" y1="327.5" x2="495.9" y2="417.5"/>
</g>
<g>
	<line class="st0" x1="291.8" y1="594.8" x2="495.3" y2="684.5"/>
</g>
<g>
	<line class="st0" x1="495.3" y1="684.5" x2="296.3" y2="859.3"/>
</g>
<g>
	<line class="st0" x1="292.5" y1="861.8" x2="487.7" y2="948"/>
</g>
<g>
	<path class="st1" d="M287.7,76.8c-2.1,0-4.3-0.8-6.3-2.3c-2.5-3.3-3-7-1.4-10.2c1.5-3,4.4-4.8,7.7-4.8c2.1,0,4.3,0.8,6.3,2.3
		c2.5,3.3,3,7,1.4,10.2C294,74.9,291,76.8,287.7,76.8z"/>
	<path d="M287.7,60L287.7,60c2,0,4.1,0.7,6,2.2c2.3,3.1,2.8,6.6,1.3,9.6c-1.4,2.8-4.2,4.5-7.3,4.5c-2,0-4.1-0.7-6-2.2
		c-2.3-3.1-2.8-6.6-1.3-9.6C281.9,61.7,284.6,60,287.7,60 M287.7,59c-7.2,0-12.4,8.3-6.7,15.8c2.2,1.7,4.5,2.4,6.7,2.4
		c7.2,0,12.4-8.3,6.7-15.8C292.2,59.7,289.9,59,287.7,59L287.7,59z"/>
</g>
<g>
	<path class="st1" d="M487.7,956.8c-2.1,0-4.3-0.8-6.3-2.3c-2.5-3.3-3-7-1.4-10.2c1.5-3,4.4-4.8,7.7-4.8c2.1,0,4.3,0.8,6.3,2.3
		c2.5,3.3,3,7,1.4,10.2C494,954.9,491,956.8,487.7,956.8z"/>
	<path d="M487.7,940L487.7,940c2,0,4.1,0.7,6,2.2c2.3,3.1,2.8,6.6,1.3,9.6c-1.4,2.8-4.2,4.5-7.3,4.5c-2,0-4.1-0.7-6-2.2
		c-2.3-3.1-2.8-6.6-1.3-9.6C481.9,941.7,484.6,940,487.7,940 M487.7,939c-7.2,0-12.4,8.3-6.7,15.8c2.2,1.7,4.5,2.4,6.7,2.4
		c7.2,0,12.4-8.3,6.7-15.8C492.2,939.7,489.9,939,487.7,939L487.7,939z"/>
</g>
<g>
	<path class="st1" d="M292.7,870.8c-2.1,0-4.3-0.8-6.3-2.3c-2.5-3.3-3-7-1.4-10.2c1.5-3,4.4-4.8,7.7-4.8c2.1,0,4.3,0.8,6.3,2.3
		c2.5,3.3,3,7,1.4,10.2C299,868.9,296,870.8,292.7,870.8z"/>
	<path d="M292.7,854L292.7,854c2,0,4.1,0.7,6,2.2c2.3,3.1,2.8,6.6,1.3,9.6c-1.4,2.8-4.2,4.5-7.3,4.5c-2,0-4.1-0.7-6-2.2
		c-2.3-3.1-2.8-6.6-1.3-9.6C286.9,855.7,289.6,854,292.7,854 M292.7,853c-7.2,0-12.4,8.3-6.7,15.8c2.2,1.7,4.5,2.4,6.7,2.4
		c7.2,0,12.4-8.3,6.7-15.8C297.2,853.7,294.9,853,292.7,853L292.7,853z"/>
</g>
<g>
	<path class="st1" d="M495.7,692.8c-2.1,0-4.3-0.8-6.3-2.3c-2.5-3.3-3-7-1.4-10.2c1.5-3,4.4-4.8,7.7-4.8c2.1,0,4.3,0.8,6.3,2.3
		c2.5,3.3,3,7,1.4,10.2C502,690.9,499,692.8,495.7,692.8z"/>
	<path d="M495.7,676L495.7,676c2,0,4.1,0.7,6,2.2c2.3,3.1,2.8,6.6,1.3,9.6c-1.4,2.8-4.2,4.5-7.3,4.5c-2,0-4.1-0.7-6-2.2
		c-2.3-3.1-2.8-6.6-1.3-9.6C489.9,677.7,492.6,676,495.7,676 M495.7,675c-7.2,0-12.4,8.3-6.7,15.8c2.2,1.7,4.5,2.4,6.7,2.4
		c7.2,0,12.4-8.3,6.7-15.8C500.2,675.7,497.9,675,495.7,675L495.7,675z"/>
</g>
<g>
	<path class="st1" d="M291.7,603.8c-2.1,0-4.3-0.8-6.3-2.3c-2.5-3.3-3-7-1.4-10.2c1.5-3,4.4-4.8,7.7-4.8c2.1,0,4.3,0.8,6.3,2.3
		c2.5,3.3,3,7,1.4,10.2C298,601.9,295,603.8,291.7,603.8z"/>
	<path d="M291.7,587L291.7,587c2,0,4.1,0.7,6,2.2c2.3,3.1,2.8,6.6,1.3,9.6c-1.4,2.8-4.2,4.5-7.3,4.5c-2,0-4.1-0.7-6-2.2
		c-2.3-3.1-2.8-6.6-1.3-9.6C285.9,588.7,288.6,587,291.7,587 M291.7,586c-7.2,0-12.4,8.3-6.7,15.8c2.2,1.7,4.5,2.4,6.7,2.4
		c7.2,0,12.4-8.3,6.7-15.8C296.2,586.7,293.9,586,291.7,586L291.7,586z"/>
</g>
<g>
	<path class="st1" d="M495.7,425.8c-2.1,0-4.3-0.8-6.3-2.3c-2.5-3.3-3-7-1.4-10.2c1.5-3,4.4-4.8,7.7-4.8c2.1,0,4.3,0.8,6.3,2.3
		c2.5,3.3,3,7,1.4,10.2C502,423.9,499,425.8,495.7,425.8z"/>
	<path d="M495.7,409L495.7,409c2,0,4.1,0.7,6,2.2c2.3,3.1,2.8,6.6,1.3,9.6c-1.4,2.8-4.2,4.5-7.3,4.5c-2,0-4.1-0.7-6-2.2
		c-2.3-3.1-2.8-6.6-1.3-9.6C489.9,410.7,492.6,409,495.7,409 M495.7,408c-7.2,0-12.4,8.3-6.7,15.8c2.2,1.7,4.5,2.4,6.7,2.4
		c7.2,0,12.4-8.3,6.7-15.8C500.2,408.7,497.9,408,495.7,408L495.7,408z"/>
</g>
<g>
	<path class="st1" d="M291.7,335.8c-2.1,0-4.3-0.8-6.3-2.3c-2.5-3.3-3-7-1.4-10.2c1.5-3,4.4-4.8,7.7-4.8c2.1,0,4.3,0.8,6.3,2.3
		c2.5,3.3,3,7,1.4,10.2C298,333.9,295,335.8,291.7,335.8z"/>
	<path d="M291.7,319L291.7,319c2,0,4.1,0.7,6,2.2c2.3,3.1,2.8,6.6,1.3,9.6c-1.4,2.8-4.2,4.5-7.3,4.5c-2,0-4.1-0.7-6-2.2
		c-2.3-3.1-2.8-6.6-1.3-9.6C285.9,320.7,288.6,319,291.7,319 M291.7,318c-7.2,0-12.4,8.3-6.7,15.8c2.2,1.7,4.5,2.4,6.7,2.4
		c7.2,0,12.4-8.3,6.7-15.8C296.2,318.7,293.9,318,291.7,318L291.7,318z"/>
</g>
<g>
	<path class="st1" d="M497.7,163.8c-2.1,0-4.3-0.8-6.3-2.3c-2.5-3.3-3-7-1.4-10.2c1.5-3,4.4-4.8,7.7-4.8c2.1,0,4.3,0.8,6.3,2.3
		c2.5,3.3,3,7,1.4,10.2C504,161.9,501,163.8,497.7,163.8z"/>
	<path d="M497.7,147L497.7,147c2,0,4.1,0.7,6,2.2c2.3,3.1,2.8,6.6,1.3,9.6c-1.4,2.8-4.2,4.5-7.3,4.5c-2,0-4.1-0.7-6-2.2
		c-2.3-3.1-2.8-6.6-1.3-9.6C491.9,148.7,494.6,147,497.7,147 M497.7,146c-7.2,0-12.4,8.3-6.7,15.8c2.2,1.7,4.5,2.4,6.7,2.4
		c7.2,0,12.4-8.3,6.7-15.8C502.2,146.7,499.9,146,497.7,146L497.7,146z"/>
</g>
</svg>
